<?xml version="1.0" encoding="UTF-8"?>
<svg version="1.1" xmlns="http://www.w3.org/2000/svg" width="16" height="16">
<path d="M0 0 C5.28 0 10.56 0 16 0 C16 5.28 16 10.56 16 16 C10.72 16 5.44 16 0 16 C0 10.72 0 5.44 0 0 Z M5 3 C2.71712371 5.69513761 2.71712371 5.69513761 3.3125 8.0625 C3.97139239 10.04475249 3.97139239 10.04475249 5 12 C8.41642759 12.25015873 8.41642759 12.25015873 12 12 C14.28287629 9.30486239 14.28287629 9.30486239 13.6875 6.9375 C13.02860761 4.95524751 13.02860761 4.95524751 12 3 C8.58357241 2.74984127 8.58357241 2.74984127 5 3 Z " fill="#555B61" transform="translate(0,0)"/>
<path d="M0 0 C0.99 0.99 1.98 1.98 3 3 C1.35 3 -0.3 3 -2 3 C-1.34 2.01 -0.68 1.02 0 0 Z " fill="#555B61" transform="translate(8,8)"/>
<path d="M0 0 C1.65 0 3.3 0 5 0 C4.01 0.99 3.02 1.98 2 3 C1.34 2.01 0.68 1.02 0 0 Z " fill="#555B61" transform="translate(6,4)"/>
</svg>
